<?xml version="1.0" standalone="no"?>
<!DOCTYPE svg PUBLIC "-//W3C//DTD SVG 20010904//EN"
 "http://www.w3.org/TR/2001/REC-SVG-20010904/DTD/svg10.dtd">
<svg version="1.0" xmlns="http://www.w3.org/2000/svg"
 width="900.000000pt" height="600.000000pt" viewBox="0 0 900.000000 600.000000"
 preserveAspectRatio="xMidYMid meet">

<g transform="translate(0.000000,600.000000) scale(0.100000,-0.100000)"
fill="#000000" stroke="none">
<path d="M3235 5941 c-6 -5 -109 -34 -230 -66 -121 -32 -221 -58 -222 -60 -7
-5 53 -215 62 -215 5 0 111 27 235 59 124 33 226 58 228 57 2 -3 392 -1474
543 -2051 39 -148 74 -273 78 -278 8 -8 200 39 214 53 5 4 -53 239 -127 522
-75 283 -136 519 -136 525 0 10 547 160 554 152 2 -2 65 -238 141 -524 75
-286 140 -523 143 -527 6 -6 260 57 270 66 2 2 -42 176 -98 386 -55 211 -99
384 -97 386 8 8 429 115 434 110 3 -3 63 -222 133 -488 70 -265 132 -484 137
-485 9 -3 233 54 240 61 2 2 -44 182 -102 401 -57 220 -103 400 -101 402 1 2
45 14 97 28 62 16 96 21 100 14 3 -6 23 -77 44 -157 21 -81 41 -151 45 -155 4
-5 83 12 176 37 92 25 170 43 173 40 3 -3 27 -85 52 -182 161 -616 412 -1558
415 -1561 5 -5 222 48 240 58 7 4 -16 105 -67 296 -42 160 -146 551 -230 870
-84 319 -154 582 -156 585 -3 3 -59 -9 -126 -27 -67 -17 -123 -30 -125 -28 -2
1 -15 47 -29 101 -14 55 -28 102 -32 106 -3 4 -48 -4 -99 -18 -52 -14 -99 -23
-106 -21 -7 3 -32 81 -55 173 -24 93 -46 172 -50 175 -3 4 -136 -28 -296 -71
-159 -42 -291 -76 -293 -75 -1 1 -16 51 -31 109 -16 59 -32 110 -35 113 -6 6
-37 -2 -431 -106 -143 -38 -262 -65 -265 -60 -3 4 -17 51 -30 104 -13 52 -29
95 -35 95 -5 0 -134 -33 -285 -73 -151 -41 -278 -71 -282 -68 -4 3 -68 240
-144 526 -76 286 -138 521 -139 522 -1 2 -50 -11 -111 -27 -60 -16 -112 -26
-115 -22 -3 4 -18 55 -34 115 -15 59 -28 107 -29 107 -1 0 -6 -4 -11 -9z"/>
<path d="M2795 5585 c-5 -2 -48 -14 -93 -26 -75 -19 -83 -24 -79 -43 2 -11 29
-115 60 -231 31 -115 99 -372 151 -570 52 -198 142 -538 200 -755 148 -559
196 -745 196 -757 0 -5 -81 -31 -180 -58 -148 -39 -180 -51 -176 -64 3 -9 15
-54 27 -101 12 -47 25 -88 28 -92 4 -4 86 13 184 39 98 25 179 44 181 42 1 -2
42 -155 91 -339 48 -184 91 -339 95 -343 4 -5 55 4 114 19 84 22 105 31 101
43 -4 15 -291 1097 -611 2308 -68 260 -148 564 -178 675 -29 112 -56 215 -60
231 -6 25 -22 32 -51 22z"/>
<path d="M2555 3284 c-132 -35 -286 -76 -343 -90 -64 -17 -101 -31 -99 -38 3
-6 44 -162 92 -346 49 -184 89 -336 91 -338 1 -2 55 11 119 28 65 17 121 28
125 23 4 -4 20 -55 34 -113 15 -58 29 -110 31 -117 3 -9 33 -4 110 17 59 15
109 31 112 34 6 5 -51 234 -61 243 -2 3 -54 -9 -115 -25 -61 -16 -111 -27
-111 -23 0 3 -27 104 -59 223 l-58 218 31 8 c17 5 114 31 216 57 102 26 188
50 192 54 7 6 -49 232 -60 242 -4 4 -115 -22 -247 -57z"/>
<path d="M6513 2452 c-51 -14 -93 -30 -93 -35 0 -22 172 -663 181 -671 5 -6
50 2 113 18 l104 28 -39 147 c-22 80 -62 235 -90 344 -41 155 -55 197 -68 196
-9 0 -58 -12 -108 -27z"/>
<path d="M2946 2371 c-55 -14 -101 -31 -103 -37 -2 -6 26 -123 62 -260 37
-137 71 -266 76 -288 12 -46 1 -46 222 13 104 28 149 36 152 28 2 -7 27 -102
56 -212 28 -110 52 -201 53 -202 1 -2 44 9 95 22 51 14 98 25 104 25 7 0 36
-93 71 -228 33 -125 60 -230 62 -233 2 -3 53 7 115 23 61 16 112 28 113 26 2
-2 49 -181 106 -398 57 -217 106 -398 109 -402 3 -4 53 6 111 22 58 16 310 82
560 148 1396 369 1892 500 1896 505 3 2 -41 177 -97 388 -56 211 -104 394
-107 407 -3 15 -10 21 -21 18 -9 -3 -54 -15 -101 -27 -47 -12 -89 -25 -93 -29
-5 -4 26 -137 67 -295 42 -159 74 -291 71 -294 -4 -3 -239 -67 -523 -142 -284
-75 -750 -198 -1035 -273 -286 -76 -521 -136 -523 -134 -2 2 -28 98 -59 213
-51 193 -87 315 -103 356 -6 14 -20 12 -125 -16 -65 -18 -119 -29 -122 -26 -2
4 -27 95 -55 202 -28 106 -56 208 -61 226 l-10 31 -95 -25 c-52 -15 -97 -23
-101 -20 -5 6 -46 154 -133 485 -27 103 -36 122 -49 116 -22 -9 -298 -83 -337
-90 l-31 -6 -54 206 c-29 113 -56 206 -59 205 -3 0 -50 -13 -104 -28z"/>
</g>
</svg>
